<svg height="512" viewBox="0 0 64 64" width="512" xmlns="http://www.w3.org/2000/svg"><g id="flat"><rect fill="#3e5496" height="54" rx="3" width="42" x="11" y="7"/><path d="m15 11h34v46h-34z" fill="#f4f4e6"/><path d="m22 22a4 4 0 1 1 4-4 4 4 0 0 1 -4 4zm0-6a2 2 0 1 0 2 2 2 2 0 0 0 -2-2z" fill="#dd3e46"/><path d="m22 32a4 4 0 1 1 4-4 4 4 0 0 1 -4 4zm0-6a2 2 0 1 0 2 2 2 2 0 0 0 -2-2z" fill="#dd3e46"/><path d="m22 52a4 4 0 1 1 4-4 4 4 0 0 1 -4 4zm0-6a2 2 0 1 0 2 2 2 2 0 0 0 -2-2z" fill="#dd3e46"/><path d="m25 3h14v8h-14z" fill="#7fcac9"/><path d="m30 6h4v2h-4z" fill="#f4f4e6"/><g fill="#394d5c"><path d="m28 18h2v2h-2z"/><path d="m32 18h2v2h-2z"/><path d="m36 18h2v2h-2z"/><path d="m40 18h2v2h-2z"/><path d="m28 28h2v2h-2z"/><path d="m32 28h2v2h-2z"/><path d="m36 28h2v2h-2z"/><path d="m40 28h2v2h-2z"/><path d="m28 38h2v2h-2z"/><path d="m32 38h2v2h-2z"/><path d="m36 38h2v2h-2z"/><path d="m40 38h2v2h-2z"/><path d="m28 48h2v2h-2z"/><path d="m32 48h2v2h-2z"/><path d="m36 48h2v2h-2z"/><path d="m40 48h2v2h-2z"/></g><path d="m21 42a1 1 0 0 1 -.707-.293l-2-2 1.414-1.414 1.21 1.21 3.3-4.128 1.562 1.25-4 5a1 1 0 0 1 -.726.373z" fill="#55b56a"/></g></svg>